<?xml version="1.0" encoding="utf-8" ?>
<svg xmlns="http://www.w3.org/2000/svg" xmlns:xlink="http://www.w3.org/1999/xlink" width="1024" height="1024">
	<path d="M571.998 101.265C592.397 99.0751 617.669 102.063 637.688 106.335C711.425 121.974 775.813 166.524 816.441 230.016C855.31 290.051 868.371 366.756 853.424 436.526C837.653 508.559 794.117 571.468 732.26 611.607C657.489 659.621 564.321 669.157 481.374 637.286C474.468 634.553 467.533 631.726 460.928 628.325C456.133 625.856 439.472 614.95 435.601 614.908C427.277 614.816 425.233 636.882 423.603 642.657C421.818 648.986 417.726 654.759 413.892 659.995C408.444 667.435 402.102 674.379 396.289 681.547L361.958 724.2L247.406 866.278C232.449 884.124 218.03 902.535 203.612 920.815C194.324 932.592 185.399 946.449 173.656 955.86C167.872 960.494 160.776 963.412 153.585 965.084C140.456 968.137 125.697 965.527 114.3 958.366C102.697 951.068 94.5333 939.393 91.6615 925.99C88.8482 913.088 91.1771 898.788 98.4255 887.725C104.286 878.779 111.718 870.595 118.504 862.338L147.376 826.771L249.516 700.789L317.225 617.236C325.594 607.049 333.936 594.417 343.618 585.661C350.944 579.035 360.879 577.159 370.238 575.209C372.756 572.338 374.952 569.056 377.239 565.993C376.958 565.748 376.681 565.497 376.41 565.241C368.213 557.576 360.804 547.36 354.397 538.146C323.618 493.923 306.096 441.835 303.888 388C301.161 313.952 328.193 241.895 378.949 187.911C429.229 134.524 498.692 103.348 571.998 101.265ZM393.895 555.315C431.869 600.509 499.089 630.078 557.277 635.145C566.295 635.958 575.348 636.329 584.403 636.258C649.455 634.663 718.085 609.028 763.5 561.363C764.824 559.973 766.134 558.571 767.431 557.156C761.935 537.964 752.406 520.303 744.573 502.008C735.059 479.63 726.741 456.762 719.656 433.501C711.141 405.559 703.851 377.259 697.808 348.681C691.58 319.597 688.392 289.822 675.526 262.612C665.72 241.875 650.994 223.847 630.701 212.672C617.216 205.245 591.826 196.688 576.322 199.202C547.365 201.497 521.407 213.373 502.361 235.611C471.293 271.887 468.247 325.434 458.006 370.209C451.989 397.411 444.493 424.264 435.551 450.65C428.935 470.152 421.505 489.369 413.28 508.249C408.523 519.239 402.558 530.346 398.701 541.642C397.493 545.181 397.102 548.34 396.98 552.046L393.895 555.315ZM390.316 550.142C391.81 539.027 397.202 529.441 401.828 519.372C404.79 512.883 407.641 506.343 410.38 499.757C419.173 479.157 427.048 458.177 433.979 436.879C442.489 409.265 449.828 381.304 455.975 353.071C462.244 323.181 466.244 292.122 477.959 263.713C485.605 245.17 498.866 227.953 514.837 215.782C537.334 198.638 563.175 193.071 590.996 194.579C624.015 199.731 649.453 212.35 669.568 239.817C692.948 271.743 696.237 314.857 704.488 352.361C709.887 376.358 716.035 400.181 722.925 423.794C730.72 450.267 740.05 476.264 750.867 501.653C757.979 518.269 767.102 534.691 772.454 551.944C779.214 544.916 785.265 536.82 790.976 528.917C823.904 483.425 841.136 428.456 840.073 372.308C838.876 306.154 809.401 239.374 761.782 193.541C712.218 145.488 645.588 119.103 576.563 120.196C575.736 120.21 574.91 120.233 574.085 120.266C502.919 124.195 436.977 152.341 389.151 205.885C343.529 256.102 319.865 322.467 323.422 390.22C326.671 446.878 349.368 509.776 390.316 550.142Z"/>
	<path d="M520.663 288.78C522.209 288.683 523.862 288.737 525.348 289.222C529.541 290.592 532.646 294.476 534.675 298.203C542.953 313.413 543.19 336.402 538.058 352.618C535.639 360.259 532.266 365.869 524.997 369.668C522.658 369.691 520.718 369.604 518.584 368.551C512.39 365.494 509.011 358.263 507.093 351.956C502.403 336.537 502.746 312.278 510.603 297.944C512.872 293.804 516.005 290.115 520.663 288.78Z"/>
	<path d="M636.844 288.666C638.358 288.534 639.943 288.612 641.413 289.026C645.873 290.279 649.119 294.114 651.248 298.043C659.43 313.145 659.393 336.567 654.545 352.658C652.253 360.264 648.768 365.82 641.654 369.692C639.72 369.716 637.722 369.749 635.889 369.042C630.974 367.147 627.721 362.238 625.671 357.61C618.643 341.749 618.985 317.597 625.377 301.603C627.733 295.707 630.873 291.227 636.844 288.666Z"/>
	<path d="M632.466 413.56L632.652 414.314C626.458 425.636 617.855 436.478 607.479 444.253C598.406 451.052 587.321 455.862 575.791 454.176C558.728 451.681 543.317 437.148 533.409 423.933C531.321 420.578 529.35 417.275 527.519 413.768C532.196 416.937 536.307 420.8 540.812 424.19C551.747 432.42 565.899 439.246 579.771 439.88C600.075 440.806 618.28 426.637 632.466 413.56Z"/>
	<path d="M736.62 340.232C739.422 339.559 742.377 340.23 744.613 342.048C746.849 343.866 748.11 346.621 748.024 349.502C747.902 353.58 745.123 357.096 741.183 358.156C737.387 359.178 733.36 357.688 731.142 354.443C729.427 351.931 729.055 348.737 730.149 345.898C731.243 343.06 733.663 340.942 736.62 340.232Z"/>
</svg>
